<svg width="36" height="35" viewBox="0 0 36 35" fill="none" xmlns="http://www.w3.org/2000/svg">
<g id="Iconly/Light-Outline/Add-User">
<g id="Add-User">
<path id="Combined-Shape" d="M31.6132 14.0092L31.6132 14.5089L32.1129 14.5092L34.4273 14.5106H34.4276C34.8955 14.5106 35.267 14.8855 35.267 15.3367C35.267 15.7878 34.8956 16.1627 34.4279 16.1629C34.4279 16.1629 34.4279 16.1629 34.4278 16.1629C34.4278 16.1629 34.4277 16.1629 34.4276 16.1629L32.1135 16.1614L31.6132 16.1611L31.6132 16.6615L31.6134 18.8835C31.6134 19.3347 31.2419 19.7096 30.774 19.7096C30.3061 19.7096 29.9347 19.3347 29.9347 18.8835V18.8835L29.9345 16.6614L29.9344 16.1611L29.4342 16.1614L27.1236 16.1629C27.1236 16.1629 27.1235 16.1629 27.1234 16.1629C27.1234 16.1629 27.1234 16.1629 27.1233 16.1629C26.6556 16.1627 26.2843 15.7878 26.2843 15.3367C26.2843 14.8855 26.6558 14.5106 27.1236 14.5106H27.1239L29.4348 14.5092L29.9344 14.5089L29.9345 14.0092L29.9347 11.7914V11.7914C29.9347 11.3402 30.3061 10.9653 30.774 10.9653C31.2419 10.9653 31.6134 11.3402 31.6134 11.7914L31.6132 14.0092ZM5.12239 9.39958V9.39781C5.12239 4.49972 9.15299 0.5 14.1176 0.5C19.0839 0.5 23.1145 4.4996 23.1145 9.40311C23.1145 14.3066 19.0839 18.3062 14.1176 18.3062H14.0629C11.6602 18.2976 9.41197 17.3646 7.72563 15.6832C6.03739 13.9999 5.11399 11.7691 5.12239 9.39958ZM8.91813 14.5226C10.177 15.7761 11.821 16.517 13.5857 16.6368L13.618 17.4833L14.6176 17.4642V16.6372C18.4166 16.3819 21.4358 13.2391 21.4358 9.40311C21.4358 5.40031 18.1482 2.15225 14.1176 2.15225C10.0891 2.15225 6.80165 5.39986 6.80111 9.40213C6.79375 11.3378 7.54717 13.1538 8.91764 14.5222L8.91813 14.5226ZM14.1176 22.5243L14.3289 22.5243L14.3302 22.5243L14.799 22.5256C14.7993 22.5256 14.7996 22.5256 14.7999 22.5256C16.8002 22.5362 20.0809 22.6333 22.85 23.4687C24.2334 23.8862 25.4486 24.4764 26.3118 25.2972C27.1608 26.1044 27.6844 27.147 27.6844 28.5329C27.6844 29.8267 27.2507 30.8165 26.5224 31.5935C25.783 32.3823 24.7166 32.9753 23.424 33.4118C20.832 34.2872 17.4791 34.4857 14.4883 34.5C14.488 34.5 14.4877 34.5 14.4874 34.5L13.4361 34.4996C13.4357 34.4996 13.4352 34.4996 13.4348 34.4996C11.4344 34.4889 8.15405 34.3919 5.38515 33.5567C4.0017 33.1394 2.7865 32.5493 1.9233 31.7287C1.07435 30.9217 0.550781 29.8795 0.550781 28.494C0.550781 27.1735 1.00235 26.1686 1.75934 25.3835C2.52842 24.5858 3.63599 23.9922 4.97309 23.5601C7.65365 22.6938 11.101 22.5243 14.1175 22.5243C14.1175 22.5243 14.1176 22.5243 14.1176 22.5243ZM14.1176 24.1765C10.3243 24.1765 7.41192 24.4976 5.4312 25.1617C3.46517 25.8209 2.22949 26.8953 2.22949 28.494C2.22949 30.1023 3.46107 31.1873 5.42981 31.8537C7.41115 32.5244 10.3241 32.8486 14.1176 32.8486C17.9109 32.8486 20.8232 32.5275 22.8039 31.8637C24.7698 31.2048 26.0057 30.131 26.0057 28.5329C26.0057 26.9231 24.7744 25.8376 22.8054 25.171C20.824 24.5003 17.911 24.1765 14.1176 24.1765Z" fill="white" stroke="white"/>
</g>
</g>
</svg>
