<svg width="37" height="40" viewBox="0 0 37 40" fill="none" xmlns="http://www.w3.org/2000/svg">
<g id="Group 38">
<g id="Iconly/Light-Outline/Document">
<g id="Document">
<path id="Combined-Shape" fill-rule="evenodd" clip-rule="evenodd" d="M25.818 0C32.106 0 36.33 4.306 36.33 10.714V29.106C36.33 35.57 32.236 39.774 25.9 39.814L10.514 39.82C4.226 39.82 0 35.514 0 29.106V10.714C0 4.248 4.094 0.046 10.43 0.008L25.816 0H25.818ZM25.818 3L10.44 3.008C5.784 3.036 3 5.916 3 10.714V29.106C3 33.936 5.81 36.82 10.512 36.82L25.89 36.814C30.546 36.786 33.33 33.902 33.33 29.106V10.714C33.33 5.884 30.522 3 25.818 3ZM25.4322 26.9474C26.2602 26.9474 26.9322 27.6194 26.9322 28.4474C26.9322 29.2754 26.2602 29.9474 25.4322 29.9474H10.9922C10.1642 29.9474 9.4922 29.2754 9.4922 28.4474C9.4922 27.6194 10.1642 26.9474 10.9922 26.9474H25.4322ZM25.4322 18.5744C26.2602 18.5744 26.9322 19.2464 26.9322 20.0744C26.9322 20.9024 26.2602 21.5744 25.4322 21.5744H10.9922C10.1642 21.5744 9.4922 20.9024 9.4922 20.0744C9.4922 19.2464 10.1642 18.5744 10.9922 18.5744H25.4322ZM16.5016 10.2208C17.3296 10.2208 18.0016 10.8928 18.0016 11.7208C18.0016 12.5488 17.3296 13.2208 16.5016 13.2208H10.9916C10.1636 13.2208 9.4916 12.5488 9.4916 11.7208C9.4916 10.8928 10.1636 10.2208 10.9916 10.2208H16.5016Z" fill="#525252"/>
</g>
</g>
</g>
</svg>
