<svg width="32" height="40" viewBox="0 0 32 40" fill="none" xmlns="http://www.w3.org/2000/svg">
<g id="Iconly/Light-Outline/Profile">
<g id="Profile">
<path id="Combined-Shape" fill-rule="evenodd" clip-rule="evenodd" d="M31.5084 32.3868C31.5084 38.9788 22.5174 39.7408 15.7562 39.7408L15.2724 39.7404C10.9647 39.7299 0 39.4564 0 32.3468C0 25.8893 8.62971 25.0263 15.3394 24.9938L16.24 24.9932C20.5474 25.0037 31.5084 25.2772 31.5084 32.3868ZM15.7562 27.9928C7.28035 27.9928 2.98375 29.4568 2.98375 32.3468C2.98375 35.2628 7.28035 36.7408 15.7562 36.7408C24.2301 36.7408 28.5247 35.2768 28.5247 32.3868C28.5247 29.4708 24.2301 27.9928 15.7562 27.9928ZM15.7562 0C21.5805 0 26.3167 4.764 26.3167 10.62C26.3167 16.476 21.5805 21.238 15.7562 21.238H15.6925C9.8802 21.22 5.17184 16.454 5.19167 10.614C5.19167 4.764 9.92993 0 15.7562 0ZM15.7562 2.856C11.4974 2.856 8.03222 6.338 8.03222 10.62C8.01834 14.888 11.4576 18.368 15.6985 18.384L15.7562 19.812V18.384C20.013 18.384 23.4762 14.9 23.4762 10.62C23.4762 6.338 20.013 2.856 15.7562 2.856Z" fill="#3C3C3C"/>
</g>
</g>
</svg>
