<svg width="31" height="35" viewBox="0 0 31 35" fill="none" xmlns="http://www.w3.org/2000/svg">
<g id="Iconly/Light-Outline/Search">
<g id="Search">
<path id="Combined-Shape" fill-rule="evenodd" clip-rule="evenodd" d="M12.4954 0.548401C19.3852 0.548401 24.9894 6.69499 24.9894 14.2516C24.9894 17.8167 23.742 21.0684 21.7006 23.5087L25.7174 27.9051C26.0933 28.3174 30.3759 33.5877 30 34C29.8127 34.2083 27 32.3549 25.5 30.7097C23.2933 28.2357 25.5 30.1613 24.3574 29.3995L20.2921 24.9532C18.1536 26.8316 15.442 27.9562 12.4954 27.9562C5.60553 27.9562 0 21.8082 0 14.2516C0 6.69499 5.60553 0.548401 12.4954 0.548401ZM12.4954 2.65918C6.66658 2.65918 1.92453 7.85873 1.92453 14.2516C1.92453 20.6444 6.66658 25.8454 12.4954 25.8454C18.3228 25.8454 23.0649 20.6444 23.0649 14.2516C23.0649 7.85873 18.3228 2.65918 12.4954 2.65918Z" fill="#4B4B4B"/>
</g>
</g>
</svg>
