<svg width="120" height="120" viewBox="0 0 120 120" fill="none" xmlns="http://www.w3.org/2000/svg">
<g id="Iconly/Bold/Plus">
<g id="Plus">
<path id="Vector" d="M87.96 0C108.36 0 120 11.52 120 31.98V88.02C120 108.36 108.42 120 88.02 120H31.98C11.52 120 0 108.36 0 88.02V31.98C0 11.52 11.52 0 31.98 0H87.96ZM59.94 33.06C57.18 33.06 54.96 35.28 54.96 38.04V54.96H37.98C36.66 54.96 35.4 55.5 34.44 56.4C33.54 57.36 33 58.614 33 59.94C33 62.7 35.22 64.92 37.98 64.98H54.96V81.96C54.96 84.72 57.18 86.94 59.94 86.94C62.7 86.94 64.92 84.72 64.92 81.96V64.98H81.96C84.72 64.92 86.94 62.7 86.94 59.94C86.94 57.18 84.72 54.96 81.96 54.96H64.92V38.04C64.92 35.28 62.7 33.06 59.94 33.06Z" fill="#828282"/>
</g>
</g>
</svg>
